<svg xmlns="http://www.w3.org/2000/svg" data-name="Layer 1" viewBox="0 0 24 24" class="h-8 w-8"><path d="M23.667 19.853 14.106 1.29C13.685.496 12.897.022 12 .022s-1.685.474-2.109 1.273L.334 19.85a2.83 2.83 0 0 0 .076 2.798 2.81 2.81 0 0 0 2.429 1.375H21.16a2.81 2.81 0 0 0 2.429-1.375c.519-.863.547-1.91.078-2.795M10.777 1.759c.245-.461.702-.736 1.223-.736s.978.275 1.22.731l3.663 7.111c-.021.024-1.74 2.936-1.74 2.936a.39.39 0 0 1-.336.194c-.08-.03-.235-.017-.339-.19l-1.041-1.717a.5.5 0 0 0-.424-.241c-.129.019-.335.088-.427.235l-1.688 2.7c-.124.197-.295.257-.393.218a.45.45 0 0 1-.391-.216s-2.748-4.33-2.766-4.35l3.438-6.675Zm11.956 20.374c-.335.557-.923.89-1.572.89H2.839a1.82 1.82 0 0 1-1.572-.89 1.83 1.83 0 0 1-.048-1.816l.002-.005L6.815 9.451l2.443 3.869c.27.427.732.682 1.237.682h.003c.506 0 .969-.258 1.237-.688l1.257-2.011.62 1.022c.255.421.7.672 1.191.672h.011a1.38 1.38 0 0 0 1.192-.689l1.409-2.407 5.366 10.418a1.83 1.83 0 0 1-.048 1.816Z"></path></svg>