<svg xmlns="http://www.w3.org/2000/svg" width="512" height="512" data-name="Layer 1" viewBox="0 0 24 24" class="h-8 w-8"><path d="M19.5 24a.5.5 0 0 1-.5-.5v-3a.5.5 0 0 1 1 0v3a.5.5 0 0 1-.5.5m-4 0a.5.5 0 0 1-.5-.5v-3a.5.5 0 0 1 1 0v3a.5.5 0 0 1-.5.5m-4 0a.5.5 0 0 1-.5-.5v-3a.5.5 0 0 1 1 0v3a.5.5 0 0 1-.5.5m-3.005-1.1c-.04 0-.178-.031-.178-.031a3.19 3.19 0 0 1-2.184-2.178c-.449-1.577.289-3.214 1.753-3.892.193-.09.294-.315.244-.548a6 6 0 0 1-.124-1.539c.143-3.051 2.644-5.558 5.694-5.705 2.641-.123 5.012 1.441 5.926 3.907.136.365.448.638.857.747 2.499.672 3.982 3.194 3.379 5.743a4.66 4.66 0 0 1-.982 1.928.5.5 0 0 1-.762-.648c.375-.44.642-.962.771-1.51.478-2.02-.692-4.017-2.665-4.547-.727-.194-1.286-.691-1.536-1.365-.762-2.055-2.742-3.354-4.939-3.257-2.499.122-4.628 2.254-4.745 4.754-.02.432.016.864.104 1.284.147.691-.183 1.376-.803 1.663-1.031.478-1.529 1.593-1.212 2.711.2.703.784 1.287 1.486 1.487.264.074.445.355.373.62-.061.223-.244.375-.459.375Zm-6.784-8.391a.501.501 0 0 1-.25-.933l3.049-1.765a5.5 5.5 0 0 1-.484-1.812H.5a.5.5 0 0 1 0-1h3.523q.025-.287.079-.574a5.4 5.4 0 0 1 .381-1.203L1.429 5.485a.5.5 0 0 1 .494-.87l3.054 1.737a5.5 5.5 0 0 1 1.346-1.355L4.567 1.955a.5.5 0 0 1 .183-.683.5.5 0 0 1 .683.183L7.19 4.497a5.3 5.3 0 0 1 1.191-.387A6 6 0 0 1 9 4.021V.5a.5.5 0 0 1 1 0v3.521a5.4 5.4 0 0 1 1.754.456l1.725-3.065a.5.5 0 1 1 .871.491L12.624 4.97c.397.275.763.607 1.087.992a.51.51 0 0 0 .639.124l2.666-1.561a.5.5 0 1 1 .506.864L14.855 6.95c-.631.369-1.42.213-1.909-.343-1.279-1.452-3.276-1.729-4.371-1.514-.439.087-2.856 1.004-3.489 3.521-.188.746-.034 2.31.959 3.769.155.228.148.527-.063.704a.5.5 0 0 1-.704-.063 6 6 0 0 1-.267-.346l-3.048 1.765a.5.5 0 0 1-.251.067Z"></path></svg>