<svg xmlns="http://www.w3.org/2000/svg" width="512" height="512" data-name="Layer 1" viewBox="0 0 24 24" class="h-8 w-8"><path d="M23.728 12.64 20.132 7.5l3.588-5.113a1.49 1.49 0 0 0 .103-1.553 1.5 1.5 0 0 0-1.331-.809H3.496c-1.93 0-3.5 1.571-3.5 3.501L0 23.5a.5.5 0 0 0 1 0V15h21.498c.562 0 1.071-.31 1.331-.807a1.5 1.5 0 0 0-.101-1.554Zm-.786 1.092a.49.49 0 0 1-.444.269H.998L.996 3.527a2.504 2.504 0 0 1 2.5-2.502h18.995c.19 0 .356.101.444.27a.49.49 0 0 1-.034.518l-3.789 5.4a.5.5 0 0 0 0 .574l3.797 5.426c.109.156.121.35.034.519Z"></path></svg>