<svg xmlns="http://www.w3.org/2000/svg" width="512" height="512" data-name="Layer 1" viewBox="0 0 24 24" class="h-8 w-8"><path d="M5 6c1.654 0 3-1.346 3-3S6.654 0 5 0 2 1.346 2 3s1.346 3 3 3m0-5c1.103 0 2 .897 2 2s-.897 2-2 2-2-.897-2-2 .897-2 2-2m.5 8A4.505 4.505 0 0 0 1 13.5a.5.5 0 0 1-1 0 5.506 5.506 0 0 1 6.599-5.391.5.5 0 1 1-.198.981A4.5 4.5 0 0 0 5.5 9M14 6c1.654 0 3-1.346 3-3s-1.346-3-3-3-3 1.346-3 3 1.346 3 3 3m0-5c1.103 0 2 .897 2 2s-.897 2-2 2-2-.897-2-2 .897-2 2-2m-.5 7c3.033 0 5.5 2.468 5.5 5.5a.5.5 0 0 1-1 0 4.505 4.505 0 0 0-5.401-4.41.501.501 0 0 1-.198-.981A5.6 5.6 0 0 1 13.5 8m-7 5c0 1.654 1.346 3 3 3s3-1.346 3-3-1.346-3-3-3-3 1.346-3 3m3-2c1.103 0 2 .897 2 2s-.897 2-2 2-2-.897-2-2 .897-2 2-2M15 23.5a.5.5 0 0 1-1 0c0-2.481-2.019-4.5-4.5-4.5S5 21.019 5 23.5a.5.5 0 0 1-1 0C4 20.468 6.467 18 9.5 18s5.5 2.468 5.5 5.5m9-4a.5.5 0 0 1-.5.5H20v3.5a.5.5 0 0 1-1 0V20h-3.5a.5.5 0 0 1 0-1H19v-3.5a.5.5 0 0 1 1 0V19h3.5a.5.5 0 0 1 .5.5"></path></svg>