<svg xmlns="http://www.w3.org/2000/svg" width="512" height="512" data-name="Layer 1" viewBox="0 0 24 24" class="h-8 w-8"><path d="m8.878 18.585-.859 4.974a.5.5 0 0 1-.986-.17l.859-4.974a.5.5 0 0 1 .986.17M20 7.5v16a.5.5 0 0 1-1 0V11h-3.5a.5.5 0 0 1-.447-.276l-1.279-2.558-.779 5.405a.5.5 0 0 1-.99-.142l.905-6.283A1.5 1.5 0 0 0 12.264 7H9.936l-.903 6.509c-.122.63.135 1.236.651 1.571l4.077 2.493A.5.5 0 0 1 14 18v5.5a.5.5 0 0 1-1 0v-5.22l-3.85-2.354a2.5 2.5 0 0 1-1.114-1.674 3.06 3.06 0 0 1-2.047.747c-1.431 0-2.97-1.095-2.97-3.5 0-3.443 3.261-5.5 6.414-5.5h2.83c.953 0 1.81.529 2.236 1.382l1.309 2.618h3.191v-2.5a.5.5 0 0 1 1 0ZM8.182 12.363l.741-5.343c-2.491.199-4.904 1.843-4.904 4.479 0 1.974 1.238 2.5 1.97 2.5 1.491 0 2.094-1.382 2.193-1.637ZM10 2.5C10 1.122 11.121 0 12.5 0S15 1.122 15 2.5 13.879 5 12.5 5 10 3.878 10 2.5m1 0c0 .827.673 1.5 1.5 1.5S14 3.327 14 2.5 13.327 1 12.5 1 11 1.673 11 2.5"></path></svg>