<svg xmlns="http://www.w3.org/2000/svg" width="512" height="512" data-name="Layer 1" viewBox="0 0 24 24" class="h-8 w-8"><path d="M24 13c0 2.911-1.06 5.721-2.984 7.909-1.171 1.332-3.22 1.465-4.568.3l-.593-.512a.501.501 0 0 1 .653-.758l.594.513c.935.81 2.354.717 3.163-.203A10.97 10.97 0 0 0 23 13c0-3.257-1.431-6.327-3.927-8.425-2.494-2.096-5.797-2.973-9.06-2.401-4.728.825-8.313 4.597-8.921 9.386-.407 3.206.533 6.294 2.648 8.695.794.899 2.239.99 3.158.198l.593-.513a.5.5 0 0 1 .655.756l-.593.513a3.26 3.26 0 0 1-2.137.795 3.22 3.22 0 0 1-2.426-1.089C.682 18.296-.344 14.929.1 11.435.763 6.207 4.678 2.09 9.842 1.189c3.556-.626 7.154.333 9.875 2.62A11.98 11.98 0 0 1 24 12.999Zm-10 0c0 1.103-.897 2-2 2s-2-.897-2-2c0-.93.638-1.714 1.5-1.937V6a.5.5 0 0 1 1 0v5.063A2.004 2.004 0 0 1 14 13m-1 0a1.001 1.001 0 0 0-2 0 1.001 1.001 0 0 0 2 0"></path></svg>